<svg xmlns="http://www.w3.org/2000/svg" xmlns:xlink="http://www.w3.org/1999/xlink" viewBox="0 0 99 456"><defs><style>.a{fill:url(#a);}.b{fill:url(#b);}.c{fill:url(#c);}.d{fill:url(#d);}.e{fill:url(#e);}.f{fill:url(#f);}.g{fill:url(#g);}.h{opacity:0.15;fill:url(#h);}.i{fill:url(#i);}</style><linearGradient id="a" x1="844" y1="455" x2="844" y2="567" gradientUnits="userSpaceOnUse"><stop offset="0"/><stop offset="0.06" stop-color="#4d4d4d"/><stop offset="0.33" stop-color="#444"/><stop offset="0.76" stop-color="#2b2b2b"/><stop offset="1" stop-color="#1a1a1a"/></linearGradient><linearGradient id="b" x1="844" y1="439" x2="844" y2="447" gradientUnits="userSpaceOnUse"><stop offset="0" stop-color="#4d4d4d"/><stop offset="0.16" stop-color="#383838"/><stop offset="0.44" stop-color="#191919"/><stop offset="0.67" stop-color="#070707"/><stop offset="0.84"/></linearGradient><linearGradient id="c" x1="843.5" y1="447" x2="843.5" y2="450" xlink:href="#b"/><linearGradient id="d" x1="49.5" y1="127" x2="49.5" y2="411" gradientUnits="userSpaceOnUse"><stop offset="0"/><stop offset="0.03" stop-color="#333"/><stop offset="0.3" stop-color="#2a2a2a"/><stop offset="0.75" stop-color="#111"/><stop offset="1"/></linearGradient><linearGradient id="e" x1="844.5" y1="850" x2="844.5" y2="861" gradientUnits="userSpaceOnUse"><stop offset="0" stop-color="#4d4d4d"/><stop offset="0.05" stop-color="#444"/><stop offset="0.13" stop-color="#2b2b2b"/><stop offset="0.23" stop-color="#030303"/><stop offset="0.24"/></linearGradient><linearGradient id="f" x1="49.5" y1="422" x2="49.5" y2="434" xlink:href="#e"/><linearGradient id="g" x1="49.5" y1="444" x2="49.5" y2="456" xlink:href="#e"/><linearGradient id="h" x1="31" y1="228" x2="68" y2="228" gradientUnits="userSpaceOnUse"><stop offset="0" stop-color="#fff" stop-opacity="0"/><stop offset="0.5" stop-color="#fff"/><stop offset="1" stop-color="#fff" stop-opacity="0"/></linearGradient><linearGradient id="i" x1="844.51" y1="534.98" x2="844.48" y2="542" gradientUnits="userSpaceOnUse"><stop offset="0" stop-color="#4d4d4d"/><stop offset="1"/></linearGradient></defs><path d="M894,884.65v8.7a1.65,1.65,0,0,1-1.65,1.65h-95.7a1.65,1.65,0,0,1-1.65-1.65v-8.7a1.65,1.65,0,0,1,1.65-1.65H803V873h-1.44a2.56,2.56,0,0,1-2.56-2.56v-6.88a2.56,2.56,0,0,1,2.56-2.56H803v-6a5,5,0,0,1,5-5h3V566h-1.73a3.26,3.26,0,0,1-3.27-3.27V455.27a1.23,1.23,0,0,1,0-.27h-3.15a1.87,1.87,0,0,1-1.87-1.87v-4.26a1.87,1.87,0,0,1,1.87-1.87h3.87c2.67-3.06,12.92-8,37.26-8s34.59,4.94,37.26,8h2.87a1.87,1.87,0,0,1,1.87,1.87v4.26a1.87,1.87,0,0,1-1.87,1.87H882a1.23,1.23,0,0,1,0,.27V562.73a3.26,3.26,0,0,1-3.27,3.27H878V850h3a5,5,0,0,1,5,5v6h1.44a2.56,2.56,0,0,1,2.56,2.56v6.88a2.56,2.56,0,0,1-2.56,2.56H886v10h6.35A1.65,1.65,0,0,1,894,884.65Z" transform="translate(-795 -439)"/><path class="a" d="M882,455.27V562.73a3.26,3.26,0,0,1-3.27,3.27H878v1H811v-1h-1.73a3.26,3.26,0,0,1-3.27-3.27V455h76A1.23,1.23,0,0,1,882,455.27Z" transform="translate(-795 -439)"/><path class="b" d="M881.26,447H806.74c2.67-3.06,12.92-8,37.26-8S878.59,443.94,881.26,447Z" transform="translate(-795 -439)"/><path class="c" d="M886,448.87V450H801v-1.13a1.87,1.87,0,0,1,1.87-1.87h81.26A1.87,1.87,0,0,1,886,448.87Z" transform="translate(-795 -439)"/><rect class="d" x="16" y="127" width="67" height="284"/><path class="e" d="M886,855v6H803v-6a5,5,0,0,1,5-5h73A5,5,0,0,1,886,855Z" transform="translate(-795 -439)"/><rect class="f" x="4" y="422" width="91" height="12" rx="2.56"/><rect class="g" y="444" width="99" height="12" rx="1.65"/><rect class="h" x="31" width="37" height="456"/><rect x="23" y="49" width="53" height="53" rx="26.5"/><path class="i" d="M850,536.5a5.5,5.5,0,0,1-5.5,5.5,5.61,5.61,0,0,1-1.07-.1,5.55,5.55,0,0,1-4.42-5.68,3.13,3.13,0,0,1,0-.44.89.89,0,0,1,.88-.78h9.14a.88.88,0,0,1,.88.76A6,6,0,0,1,850,536.5Z" transform="translate(-795 -439)"/></svg>