<svg xmlns="http://www.w3.org/2000/svg" xmlns:xlink="http://www.w3.org/1999/xlink" viewBox="0 0 1272.6 624"><defs><linearGradient id="a" x1="57.81" y1="489.19" x2="667.67" y2="234.25" gradientUnits="userSpaceOnUse"><stop offset="0" stop-color="#73e7d1"/><stop offset="0.12" stop-color="#6eded7"/><stop offset="0.33" stop-color="#5fc4e8"/><stop offset="0.47" stop-color="#53aff6"/><stop offset="0.7" stop-color="#6691eb"/><stop offset="1" stop-color="#8363da"/></linearGradient><linearGradient id="b" x1="705.75" y1="417.5" x2="1208.98" y2="-1.13" gradientUnits="userSpaceOnUse"><stop offset="0" stop-color="#e772c7"/><stop offset="0.08" stop-color="#e86fbe"/><stop offset="0.22" stop-color="#ed66a4"/><stop offset="0.4" stop-color="#f3587b"/><stop offset="0.47" stop-color="#f65268"/><stop offset="0.72" stop-color="#ea7065"/><stop offset="1" stop-color="#da9662"/></linearGradient></defs><path d="M602.21,530.79A50.35,50.35,0,0,0,566.5,516h-211c-.84,0-1.67,0-2.5.07V516h-5.5A50.5,50.5,0,0,1,297,465.5v-.24a50.5,50.5,0,0,1,50.5-50.5h18a50.5,50.5,0,0,0,50.5-50.5v-2.69a50.5,50.5,0,0,0-50.5-50.5h-162a50.5,50.5,0,0,1-50.5-50.5v-2.69a50.5,50.5,0,0,1,50.5-50.5h216a50.5,50.5,0,0,0,50.5-50.5v-2.69a50.5,50.5,0,0,0-50.5-50.5h-70A50.5,50.5,0,0,1,299,53.19V50.5A50.48,50.48,0,0,1,347.46.05,308.79,308.79,0,0,0,60.83,207.75,52,52,0,0,1,52,311a52.54,52.54,0,0,1-8-.61C45,479.9,182.75,617,352.5,617h.5v-.07c.83.05,1.66.07,2.5.07h211a50.5,50.5,0,0,0,35.71-86.21Zm-348.44-30A51.84,51.84,0,0,1,217,516H177a52,52,0,1,1,0-104h40a52,52,0,0,1,36.77,88.77Z" style="fill:#2a245a"/><path d="M353,616.93c.83.05,1.66.07,2.5.07H353Z"/><path d="M355.5,516c-.84,0-1.67,0-2.5.07V516Z"/><path d="M358.94.07l-1.4,0c-.35,0-.7,0-1.05,0h.66Z" style="fill:#fc7942"/><path d="M353,616.93c.83.05,1.66.07,2.5.07H353Z" style="fill:#fc7942"/><path d="M355.5,516c-.84,0-1.67,0-2.5.07V516Z" style="fill:#fc7942"/><path d="M352.5,0c-1.68,0-3.36,0-5,.05.68,0,1.36,0,2,0Z" style="fill:#fc7942"/><path d="M357.54.05c-.35,0-.7,0-1.05,0-1.16,0-2.33,0-3.49,0h2.5c.5,0,1,0,1.48,0h.17Z" style="fill:#fc7942"/><path d="M661,308.5V591.66A25.35,25.35,0,0,1,635.66,617H566.5a50.5,50.5,0,1,0,0-101h-219A50.5,50.5,0,0,1,297,465.5v-.24a50.5,50.5,0,0,1,50.5-50.5h18a50.5,50.5,0,0,0,50.5-50.5v-2.69a50.5,50.5,0,0,0-50.5-50.5h-162a50.5,50.5,0,0,1-50.5-50.5v-2.69a50.5,50.5,0,0,1,50.5-50.5h216a50.5,50.5,0,0,0,50.5-50.5v-2.69a50.5,50.5,0,0,0-50.5-50.5h-70A50.5,50.5,0,0,1,299,53.19V50.5A50.48,50.48,0,0,1,347.46.05c1.68,0,3.36,0,5,0h.5c1.16,0,2.33,0,3.49,0,.35,0,.7,0,1.05,0l1.4,0c.47,0,.94,0,1.4,0h.14c2.14.06,4.27.13,6.39.24.66,0,1.31,0,2,.09q3.71.18,7.4.47l2.61.21,2.08.18,3.54.35q5.82.6,11.58,1.41,3.82.54,7.64,1.18Q413.26,5.82,422.64,8c2.44.57,4.86,1.16,7.28,1.79,1.74.45,3.48.91,5.21,1.4l2.13.59q7.31,2.09,14.45,4.51l3.57,1.24c1.18.42,2.37.84,3.54,1.28,2.63,1,5.23,1.95,7.82,3l2.7,1.09c1.16.47,2.31,1,3.46,1.44q2.1.89,4.17,1.8c2,.88,3.94,1.77,5.9,2.68,2.38,1.11,4.75,2.26,7.1,3.43,1,.52,2.1,1,3.14,1.59l3.31,1.72c1.1.58,2.19,1.17,3.28,1.76q6.56,3.56,12.89,7.42,3.12,1.89,6.19,3.86a307.91,307.91,0,0,1,27.13,19.55q2.07,1.66,4.1,3.36,2.21,1.84,4.38,3.72,8.4,7.27,16.25,15.13a309.13,309.13,0,0,1,63.11,91.18q1.54,3.42,3,6.88A306.47,306.47,0,0,1,649.3,224c.69,2.44,1.35,4.9,2,7.36A309.08,309.08,0,0,1,661,308.5ZM60.83,207.75A52.43,52.43,0,0,0,52,207a52,52,0,0,0-8,103.39,52.54,52.54,0,0,0,8,.61,52,52,0,0,0,8.83-103.25ZM217,412H177a52,52,0,0,0,0,104h40a52,52,0,0,0,0-104Z" style="fill:url(#a)"/><path d="M964,7v.24c-1.65-.16-3.31-.24-5-.24Z"/><path d="M1088,371a52,52,0,0,1-52,52H967q-1.51,0-3-.09V423H952a52,52,0,1,0,0,104h16.46c67.39,2.47,65.71,89.07,6.8,96.49-3.11.29-6.26.46-9.43.49-.6,0-1.21,0-1.83,0V624c-41.54-.11-78.89-21.91-94.44-55.18l-206-440.65C636.43,70.22,685.85,7,758.26,7H890a52,52,0,1,0,0,104h96a52,52,0,0,1,0,104H828a52,52,0,1,0,0,104H964v.09q1.49-.09,3-.09h69a52,52,0,0,1,52,52Z" style="fill:#5a2a13"/><path d="M964,110.76V111h-5C960.69,111,962.35,110.92,964,110.76Z"/><path d="M967,319q-1.51,0-3,.09V319Z"/><path d="M967,423h-3v-.09Q965.49,423,967,423Z"/><path d="M964,623.94c.62,0,1.23,0,1.83,0-.51,0-1,0-1.53,0H964Z"/><path d="M956,527a67.17,67.17,0,0,1,8-.23c1.31,0,2.64.1,4,.21l.46,0Z"/><path d="M967,319q-1.51,0-3,.09V319Z" style="fill:#ff3e00"/><path d="M967,423h-3v-.09Q965.49,423,967,423Z" style="fill:#ff3e00"/><path d="M964,623.94c.62,0,1.23,0,1.83,0-.51,0-1,0-1.53,0H964Z" style="fill:#ff3e00"/><path d="M968.46,527H964v-.23c1.31,0,2.64.1,4,.21Z" style="fill:#ff3e00"/><path d="M968.46,527H956a67.17,67.17,0,0,1,8-.23c1.31,0,2.64.1,4,.21Z" style="fill:#ff3e00"/><path d="M975.26,623.49a64.05,64.05,0,0,1-9.43.49C969,624,972.15,623.78,975.26,623.49Z"/><path d="M1265.07,128.17,1059,568.82c-14.21,30.4-46.6,51.22-83.77,54.67,58.91-7.42,60.59-94-6.8-96.49H952a52,52,0,0,1,0-104h84a52,52,0,1,0,0-104H828a52,52,0,0,1,0-104H986a52,52,0,1,0,0-104H964v-.24c-1.65.16-3.31.24-5,.24H890A52,52,0,0,1,890,7h69c1.69,0,3.35.08,5,.24V7h206.33C1242.74,7,1292.17,70.22,1265.07,128.17ZM882,475h0a52,52,0,0,0-52-52h0a52,52,0,0,0-52,52h0a52,52,0,0,0,52,52h0A52,52,0,0,0,882,475ZM801,59h0A52,52,0,0,0,749,7H670a52,52,0,0,0-52,52h0a52,52,0,0,0,52,52h79A52,52,0,0,0,801,59Z" style="fill:url(#b)"/></svg>