<svg xmlns="http://www.w3.org/2000/svg" xmlns:xlink="http://www.w3.org/1999/xlink" viewBox="0 0 3210.07 707.74"><defs><linearGradient id="a" x1="57.81" y1="489.19" x2="667.67" y2="234.25" gradientUnits="userSpaceOnUse"><stop offset="0" stop-color="#73e7d1"/><stop offset="0.12" stop-color="#6eded7"/><stop offset="0.33" stop-color="#5fc4e8"/><stop offset="0.47" stop-color="#53aff6"/><stop offset="0.7" stop-color="#6691eb"/><stop offset="1" stop-color="#8363da"/></linearGradient><linearGradient id="b" x1="705.75" y1="417.5" x2="1208.98" y2="-1.13" gradientUnits="userSpaceOnUse"><stop offset="0" stop-color="#e772c7"/><stop offset="0.08" stop-color="#e86fbe"/><stop offset="0.22" stop-color="#ed66a4"/><stop offset="0.4" stop-color="#f3587b"/><stop offset="0.47" stop-color="#f65268"/><stop offset="0.72" stop-color="#ea7065"/><stop offset="1" stop-color="#da9662"/></linearGradient></defs><path d="M602.21,530.79A50.35,50.35,0,0,0,566.5,516h-211c-.84,0-1.67,0-2.5.07V516h-5.5A50.5,50.5,0,0,1,297,465.5v-.24a50.5,50.5,0,0,1,50.5-50.5h18a50.5,50.5,0,0,0,50.5-50.5v-2.69a50.5,50.5,0,0,0-50.5-50.5h-162a50.5,50.5,0,0,1-50.5-50.5v-2.69a50.5,50.5,0,0,1,50.5-50.5h216a50.5,50.5,0,0,0,50.5-50.5v-2.69a50.5,50.5,0,0,0-50.5-50.5h-70A50.5,50.5,0,0,1,299,53.19V50.5A50.48,50.48,0,0,1,347.46.05,308.79,308.79,0,0,0,60.83,207.75,52,52,0,0,1,52,311a52.54,52.54,0,0,1-8-.61C45,479.9,182.75,617,352.5,617h.5v-.07c.83.05,1.66.07,2.5.07h211a50.5,50.5,0,0,0,35.71-86.21Zm-348.44-30A51.84,51.84,0,0,1,217,516H177a52,52,0,1,1,0-104h40a52,52,0,0,1,36.77,88.77Z" style="fill:#2a245a"/><path d="M353,616.93c.83.05,1.66.07,2.5.07H353Z"/><path d="M355.5,516c-.84,0-1.67,0-2.5.07V516Z"/><path d="M358.94.07l-1.4,0c-.35,0-.7,0-1.05,0h.66Z" style="fill:#fc7942"/><path d="M353,616.93c.83.05,1.66.07,2.5.07H353Z" style="fill:#fc7942"/><path d="M355.5,516c-.84,0-1.67,0-2.5.07V516Z" style="fill:#fc7942"/><path d="M352.5,0c-1.68,0-3.36,0-5,.05.68,0,1.36,0,2,0Z" style="fill:#fc7942"/><path d="M357.54.05c-.35,0-.7,0-1.05,0-1.16,0-2.33,0-3.49,0h2.5c.5,0,1,0,1.48,0h.17Z" style="fill:#fc7942"/><path d="M661,308.5V591.66A25.35,25.35,0,0,1,635.66,617H566.5a50.5,50.5,0,1,0,0-101h-219A50.5,50.5,0,0,1,297,465.5v-.24a50.5,50.5,0,0,1,50.5-50.5h18a50.5,50.5,0,0,0,50.5-50.5v-2.69a50.5,50.5,0,0,0-50.5-50.5h-162a50.5,50.5,0,0,1-50.5-50.5v-2.69a50.5,50.5,0,0,1,50.5-50.5h216a50.5,50.5,0,0,0,50.5-50.5v-2.69a50.5,50.5,0,0,0-50.5-50.5h-70A50.5,50.5,0,0,1,299,53.19V50.5A50.48,50.48,0,0,1,347.46.05c1.68,0,3.36,0,5,0h.5c1.16,0,2.33,0,3.49,0,.35,0,.7,0,1.05,0l1.4,0c.47,0,.94,0,1.4,0h.14c2.14.06,4.27.13,6.39.24.66,0,1.31,0,2,.09q3.71.18,7.4.47l2.61.21,2.08.18,3.54.35q5.82.6,11.58,1.41,3.82.54,7.64,1.18Q413.26,5.82,422.64,8c2.44.57,4.86,1.16,7.28,1.79,1.74.45,3.48.91,5.21,1.4l2.13.59q7.31,2.09,14.45,4.51l3.57,1.24c1.18.42,2.37.84,3.54,1.28,2.63,1,5.23,1.95,7.82,3l2.7,1.09c1.16.47,2.31,1,3.46,1.44q2.1.89,4.17,1.8c2,.88,3.94,1.77,5.9,2.68,2.38,1.11,4.75,2.26,7.1,3.43,1,.52,2.1,1,3.14,1.59l3.31,1.72c1.1.58,2.19,1.17,3.28,1.76q6.56,3.56,12.89,7.42,3.12,1.89,6.19,3.86a307.91,307.91,0,0,1,27.13,19.55q2.07,1.66,4.1,3.36,2.21,1.84,4.38,3.72,8.4,7.27,16.25,15.13a309.13,309.13,0,0,1,63.11,91.18q1.54,3.42,3,6.88A306.47,306.47,0,0,1,649.3,224c.69,2.44,1.35,4.9,2,7.36A309.08,309.08,0,0,1,661,308.5ZM60.83,207.75A52.43,52.43,0,0,0,52,207a52,52,0,0,0-8,103.39,52.54,52.54,0,0,0,8,.61,52,52,0,0,0,8.83-103.25ZM217,412H177a52,52,0,0,0,0,104h40a52,52,0,0,0,0-104Z" style="fill:url(#a)"/><path d="M964,7v.24c-1.65-.16-3.31-.24-5-.24Z"/><path d="M1088,371a52,52,0,0,1-52,52H967q-1.51,0-3-.09V423H952a52,52,0,1,0,0,104h16.46c67.39,2.47,65.71,89.07,6.8,96.49-3.11.29-6.26.46-9.43.49-.6,0-1.21,0-1.83,0V624c-41.54-.11-78.89-21.91-94.44-55.18l-206-440.65C636.43,70.22,685.85,7,758.26,7H890a52,52,0,1,0,0,104h96a52,52,0,0,1,0,104H828a52,52,0,1,0,0,104H964v.09q1.49-.09,3-.09h69a52,52,0,0,1,52,52Z" style="fill:#5a2a13"/><path d="M964,110.76V111h-5C960.69,111,962.35,110.92,964,110.76Z"/><path d="M967,319q-1.51,0-3,.09V319Z"/><path d="M967,423h-3v-.09Q965.49,423,967,423Z"/><path d="M964,623.94c.62,0,1.23,0,1.83,0-.51,0-1,0-1.53,0H964Z"/><path d="M956,527a67.17,67.17,0,0,1,8-.23c1.31,0,2.64.1,4,.21l.46,0Z"/><path d="M967,319q-1.51,0-3,.09V319Z" style="fill:#ff3e00"/><path d="M967,423h-3v-.09Q965.49,423,967,423Z" style="fill:#ff3e00"/><path d="M964,623.94c.62,0,1.23,0,1.83,0-.51,0-1,0-1.53,0H964Z" style="fill:#ff3e00"/><path d="M968.46,527H964v-.23c1.31,0,2.64.1,4,.21Z" style="fill:#ff3e00"/><path d="M968.46,527H956a67.17,67.17,0,0,1,8-.23c1.31,0,2.64.1,4,.21Z" style="fill:#ff3e00"/><path d="M975.26,623.49a64.05,64.05,0,0,1-9.43.49C969,624,972.15,623.78,975.26,623.49Z"/><path d="M1265.07,128.17,1059,568.82c-14.21,30.4-46.6,51.22-83.77,54.67,58.91-7.42,60.59-94-6.8-96.49H952a52,52,0,0,1,0-104h84a52,52,0,1,0,0-104H828a52,52,0,0,1,0-104H986a52,52,0,1,0,0-104H964v-.24c-1.65.16-3.31.24-5,.24H890A52,52,0,0,1,890,7h69c1.69,0,3.35.08,5,.24V7h206.33C1242.74,7,1292.17,70.22,1265.07,128.17ZM882,475h0a52,52,0,0,0-52-52h0a52,52,0,0,0-52,52h0a52,52,0,0,0,52,52h0A52,52,0,0,0,882,475ZM801,59h0A52,52,0,0,0,749,7H670a52,52,0,0,0-52,52h0a52,52,0,0,0,52,52h79A52,52,0,0,0,801,59Z" style="fill:url(#b)"/><path d="M1413.09,544.74q0,38-28.5,59.5t-84,21.5a237.59,237.59,0,0,1-39-3q-18-3-30.75-9.25t-20-15.75a36,36,0,0,1-7.25-22.5q0-12,5-20.25a50.56,50.56,0,0,1,12-13.75,198.36,198.36,0,0,0,33.25,14.25q18.75,6.25,43.25,6.25,15.5,0,23.75-4.5t8.25-12a12.56,12.56,0,0,0-6-11q-6-4-20-6.5l-15-3q-43.5-8.49-64.75-26.75t-21.25-52.25a69,69,0,0,1,30.5-58.5q14.51-10,34.75-15.5a170.83,170.83,0,0,1,44.75-5.5,208.69,208.69,0,0,1,34.75,2.75,113.77,113.77,0,0,1,28.25,8.25q12,5.5,19,14.25a32.2,32.2,0,0,1,7,20.75q0,11.5-4.25,19.75a44.27,44.27,0,0,1-10.75,13.75,62.32,62.32,0,0,0-12-5.25q-8-2.75-17.5-5t-19.25-3.75a117.64,117.64,0,0,0-17.75-1.5q-16.5,0-25.5,3.75t-9,11.75q0,5.5,5,9t19,6.5l15.5,3.5q48,11,68.25,30.25T1413.09,544.74Z"/><path d="M1782.58,625.24a175.3,175.3,0,0,1-54.75-8.25,124.09,124.09,0,0,1-44-24.75q-18.75-16.5-29.5-41.5t-10.75-58.5q0-33,10.75-56.75t28.25-39a113.16,113.16,0,0,1,40-22.5,149.18,149.18,0,0,1,46-7.25q26.51,0,48.25,8a116.24,116.24,0,0,1,37.5,22,97.93,97.93,0,0,1,24.5,33.5,102.68,102.68,0,0,1,8.75,42.5q0,17-9.5,26t-26.5,11.5l-123.5,18.5q5.51,16.5,22.5,24.75t39,8.25a139.53,139.53,0,0,0,38.75-5.25q18.26-5.25,29.75-12.25a42,42,0,0,1,13.5,14,35.85,35.85,0,0,1,5.5,19q0,22.5-21,33.5a111.3,111.3,0,0,1-36,11.5A253.48,253.48,0,0,1,1782.58,625.24Zm-14-196.5q-12,0-20.75,4A42,42,0,0,0,1733.58,443a42.55,42.55,0,0,0-8.25,14,57.7,57.7,0,0,0-3.25,15.75l85.5-14q-1.5-10-11-20T1768.58,428.74Z"/><path d="M2082.58,463.24q0-15.5-8.75-22.75t-23.75-7.25a79.5,79.5,0,0,0-19.75,2.5,50,50,0,0,0-16.75,7.5v173.5a115.69,115.69,0,0,1-15.75,3,160.89,160.89,0,0,1-22.25,1.5,117.6,117.6,0,0,1-19.75-1.5,33.66,33.66,0,0,1-14.75-6,28.87,28.87,0,0,1-9.25-12.25q-3.25-7.74-3.25-20.25v-150q0-13.5,5.75-22a60.72,60.72,0,0,1,15.75-15.5q17-12,42.75-19.5t57.25-7.5q56.51,0,87,24.75t30.5,68.75v156.5a115.69,115.69,0,0,1-15.75,3,160.89,160.89,0,0,1-22.25,1.5,117.6,117.6,0,0,1-19.75-1.5,33.66,33.66,0,0,1-14.75-6,28.87,28.87,0,0,1-9.25-12.25q-3.26-7.74-3.25-20.25Z"/><path d="M2348.58,625.24a175.3,175.3,0,0,1-54.75-8.25,124,124,0,0,1-44-24.75q-18.75-16.5-29.5-41.5t-10.75-58.5q0-33,10.75-56.75t28.25-39a113.07,113.07,0,0,1,40-22.5,149.18,149.18,0,0,1,46-7.25q26.49,0,48.25,8a116.24,116.24,0,0,1,37.5,22,98.06,98.06,0,0,1,24.5,33.5,102.68,102.68,0,0,1,8.75,42.5q0,17-9.5,26t-26.5,11.5l-123.5,18.5q5.49,16.5,22.5,24.75t39,8.25a139.58,139.58,0,0,0,38.75-5.25q18.24-5.25,29.75-12.25a42,42,0,0,1,13.5,14,35.94,35.94,0,0,1,5.5,19q0,22.5-21,33.5a111.3,111.3,0,0,1-36,11.5A253.69,253.69,0,0,1,2348.58,625.24Zm-14-196.5q-12,0-20.75,4A41.78,41.78,0,0,0,2299.58,443a42.55,42.55,0,0,0-8.25,14,57.33,57.33,0,0,0-3.25,15.75l85.5-14q-1.5-10-11-20T2334.58,428.74Z"/><path d="M2579.58,616.74a116.33,116.33,0,0,1-15.75,3,161.1,161.1,0,0,1-22.25,1.5,117.43,117.43,0,0,1-19.75-1.5,33.61,33.61,0,0,1-14.75-6,28.79,28.79,0,0,1-9.25-12.25c-2.18-5.16-3.25-11.91-3.25-20.25v-150q0-11.49,4.25-19.75a46.2,46.2,0,0,1,12.25-14.75A88,88,0,0,1,2530.83,385a203.48,203.48,0,0,1,25.25-9.25,214.51,214.51,0,0,1,28-6.25,188.66,188.66,0,0,1,29-2.25q24,0,38,9.25t14,30.25a48.61,48.61,0,0,1-2,13.75,63,63,0,0,1-5,12.25c-7,0-14.18.34-21.5,1s-14.5,1.67-21.5,3-13.59,2.75-19.75,4.25a86.21,86.21,0,0,0-15.75,5.25Z"/><path d="M2812.58,366.74q28.5,0,51.75,7.25t39.25,18.75a61,61,0,0,1,15.75,15.5q5.73,8.5,5.75,22v175q0,26.49-10,45.75a92.13,92.13,0,0,1-27.25,32q-17.25,12.75-40.5,18.75a198.56,198.56,0,0,1-49.75,6q-45.51,0-71.5-12.25t-26-39.75a41.61,41.61,0,0,1,4.75-20.25q4.74-8.76,10.75-13.25a167.89,167.89,0,0,0,32.75,13.5,130.3,130.3,0,0,0,37.75,5.5q27,0,43-9t16-29v-8q-20.52,9-50,9a134.3,134.3,0,0,1-42.75-6.75,95.57,95.57,0,0,1-35.5-21q-15.27-14.25-24.5-36.75t-9.25-53.5q0-30.5,9.75-53a101,101,0,0,1,27-37.25,113.05,113.05,0,0,1,41-22A176.52,176.52,0,0,1,2812.58,366.74Zm31,72.5a51.18,51.18,0,0,0-10.25-4,60,60,0,0,0-16.75-2q-24.51,0-36.75,13.75t-12.25,39.25q0,29,12.25,41.75t31.25,12.75q20.49,0,32.5-9.5Z"/><path d="M3010.57,555.24q-5.51-12.5-11.75-28t-13-35.5q-6.75-20-14-45.75t-15.25-59.25q7-7,18.75-12.25a62.4,62.4,0,0,1,25.75-5.25q17.5,0,29,7.25t17,27.25l39.5,137.5h2q6-17,11.75-37T3111.57,463q5.5-21.24,10.25-42.5t8.25-41.75a83.36,83.36,0,0,1,39.5-9.5q17.5,0,29,7.5t11.5,26a164.25,164.25,0,0,1-3.5,31.25q-3.5,17.76-9.25,37.75T3183.82,513q-7.76,21.25-16.25,41.75t-17.5,38.75q-9,18.25-17.5,32.75-14,24.5-26,40t-23,24.25q-11,8.75-22,12a81,81,0,0,1-23,3.25q-21,0-34-12.5t-15.5-32.5q16-12.51,32-27.75a335.68,335.68,0,0,0,29-31.25q-8.51-2.49-18.25-11.75T3010.57,555.24Z"/></svg>