<svg xmlns="http://www.w3.org/2000/svg" xmlns:xlink="http://www.w3.org/1999/xlink" viewBox="0 0 1895.63 643"><defs><style>.cls-1{fill:#2a245a;}.cls-2{fill:#fc7942;}.cls-3{fill:url(#linear-gradient);}.cls-4{fill:#5a2a13;}.cls-5{fill:#ff3e00;}.cls-6{fill:url(#linear-gradient-2);}.cls-7{fill:#09385a;}.cls-8{fill:#c9bf43;}.cls-9{fill:url(#linear-gradient-3);}</style><linearGradient id="linear-gradient" x1="57.81" y1="489.19" x2="667.67" y2="234.25" gradientUnits="userSpaceOnUse"><stop offset="0" stop-color="#73e7d1"/><stop offset="0.12" stop-color="#6eded7"/><stop offset="0.33" stop-color="#5fc4e8"/><stop offset="0.47" stop-color="#53aff6"/><stop offset="0.7" stop-color="#6691eb"/><stop offset="1" stop-color="#8363da"/></linearGradient><linearGradient id="linear-gradient-2" x1="705.75" y1="417.5" x2="1208.98" y2="-1.13" gradientUnits="userSpaceOnUse"><stop offset="0" stop-color="#e772c7"/><stop offset="0.08" stop-color="#e86fbe"/><stop offset="0.22" stop-color="#ed66a4"/><stop offset="0.4" stop-color="#f3587b"/><stop offset="0.47" stop-color="#f65268"/><stop offset="0.72" stop-color="#ea7065"/><stop offset="1" stop-color="#da9662"/></linearGradient><linearGradient id="linear-gradient-3" x1="1170" y1="334" x2="1895.63" y2="334" gradientUnits="userSpaceOnUse"><stop offset="0" stop-color="#a772e7"/><stop offset="0.11" stop-color="#b06ee9"/><stop offset="0.28" stop-color="#ca62ee"/><stop offset="0.47" stop-color="#ed52f6"/><stop offset="0.59" stop-color="#e957d8"/><stop offset="0.86" stop-color="#df638b"/><stop offset="1" stop-color="#da6962"/></linearGradient></defs><g id="Layer_2" data-name="Layer 2"><g id="Layer_1-2" data-name="Layer 1"><path class="cls-1" d="M602.21,530.79A50.35,50.35,0,0,0,566.5,516h-211c-.84,0-1.67,0-2.5.07V516h-5.5A50.5,50.5,0,0,1,297,465.5v-.24a50.5,50.5,0,0,1,50.5-50.5h18a50.5,50.5,0,0,0,50.5-50.5v-2.69a50.5,50.5,0,0,0-50.5-50.5h-162a50.5,50.5,0,0,1-50.5-50.5v-2.69a50.5,50.5,0,0,1,50.5-50.5h216a50.5,50.5,0,0,0,50.5-50.5v-2.69a50.5,50.5,0,0,0-50.5-50.5h-70A50.5,50.5,0,0,1,299,53.19V50.5A50.48,50.48,0,0,1,347.46.05,308.79,308.79,0,0,0,60.83,207.75,52,52,0,0,1,52,311a52.54,52.54,0,0,1-8-.61C45,479.9,182.75,617,352.5,617h.5v-.07c.83.05,1.66.07,2.5.07h211a50.5,50.5,0,0,0,35.71-86.21Zm-348.44-30A51.84,51.84,0,0,1,217,516H177a52,52,0,1,1,0-104h40a52,52,0,0,1,36.77,88.77Z"/><path d="M353,616.93c.83.05,1.66.07,2.5.07H353Z"/><path d="M355.5,516c-.84,0-1.67,0-2.5.07V516Z"/><path class="cls-2" d="M358.94.07l-1.4,0c-.35,0-.7,0-1.05,0h.66Z"/><path class="cls-2" d="M353,616.93c.83.05,1.66.07,2.5.07H353Z"/><path class="cls-2" d="M355.5,516c-.84,0-1.67,0-2.5.07V516Z"/><path class="cls-2" d="M352.5,0c-1.68,0-3.36,0-5,.05.68,0,1.36,0,2,0Z"/><path class="cls-2" d="M357.54.05c-.35,0-.7,0-1.05,0-1.16,0-2.33,0-3.49,0h2.5c.5,0,1,0,1.48,0h.17Z"/><path class="cls-3" d="M661,308.5V591.66A25.35,25.35,0,0,1,635.66,617H566.5a50.5,50.5,0,1,0,0-101h-219A50.5,50.5,0,0,1,297,465.5v-.24a50.5,50.5,0,0,1,50.5-50.5h18a50.5,50.5,0,0,0,50.5-50.5v-2.69a50.5,50.5,0,0,0-50.5-50.5h-162a50.5,50.5,0,0,1-50.5-50.5v-2.69a50.5,50.5,0,0,1,50.5-50.5h216a50.5,50.5,0,0,0,50.5-50.5v-2.69a50.5,50.5,0,0,0-50.5-50.5h-70A50.5,50.5,0,0,1,299,53.19V50.5A50.48,50.48,0,0,1,347.46.05c1.68,0,3.36,0,5,0h.5c1.16,0,2.33,0,3.49,0,.35,0,.7,0,1.05,0l1.4,0c.47,0,.94,0,1.4,0h.14c2.14.06,4.27.13,6.39.24.66,0,1.31,0,2,.09q3.71.18,7.4.47l2.61.21,2.08.18,3.54.35q5.82.6,11.58,1.41,3.82.54,7.64,1.18Q413.26,5.82,422.64,8c2.44.57,4.86,1.16,7.28,1.79,1.74.45,3.48.91,5.21,1.4l2.13.59q7.31,2.09,14.45,4.51l3.57,1.24c1.18.42,2.37.84,3.54,1.28,2.63,1,5.23,1.95,7.82,3l2.7,1.09c1.16.47,2.31,1,3.46,1.44q2.1.89,4.17,1.8c2,.88,3.94,1.77,5.9,2.68,2.38,1.11,4.75,2.26,7.1,3.43,1,.52,2.1,1,3.14,1.59l3.31,1.72c1.1.58,2.19,1.17,3.28,1.76q6.56,3.56,12.89,7.42,3.12,1.89,6.19,3.86a307.91,307.91,0,0,1,27.13,19.55q2.07,1.66,4.1,3.36,2.21,1.84,4.38,3.72,8.4,7.27,16.25,15.13a309.13,309.13,0,0,1,63.11,91.18q1.54,3.42,3,6.88A306.47,306.47,0,0,1,649.3,224c.69,2.44,1.35,4.9,2,7.36A309.08,309.08,0,0,1,661,308.5ZM60.83,207.75A52.43,52.43,0,0,0,52,207a52,52,0,0,0-8,103.39,52.54,52.54,0,0,0,8,.61,52,52,0,0,0,8.83-103.25ZM217,412H177a52,52,0,0,0,0,104h40a52,52,0,0,0,0-104Z"/><path d="M964,7v.24c-1.65-.16-3.31-.24-5-.24Z"/><path class="cls-4" d="M1088,371a52,52,0,0,1-52,52H967q-1.51,0-3-.09V423H952a52,52,0,1,0,0,104h16.46c67.39,2.47,65.71,89.07,6.8,96.49-3.11.29-6.26.46-9.43.49-.6,0-1.21,0-1.83,0V624c-41.54-.11-78.89-21.91-94.44-55.18l-206-440.65C636.43,70.22,685.85,7,758.26,7H890a52,52,0,1,0,0,104h96a52,52,0,0,1,0,104H828a52,52,0,1,0,0,104H964v.09q1.49-.09,3-.09h69a52,52,0,0,1,52,52Z"/><path d="M964,110.76V111h-5C960.69,111,962.35,110.92,964,110.76Z"/><path d="M967,319q-1.51,0-3,.09V319Z"/><path d="M967,423h-3v-.09Q965.49,423,967,423Z"/><path d="M964,623.94c.62,0,1.23,0,1.83,0-.51,0-1,0-1.53,0H964Z"/><path d="M956,527a67.17,67.17,0,0,1,8-.23c1.31,0,2.64.1,4,.21l.46,0Z"/><path class="cls-5" d="M967,319q-1.51,0-3,.09V319Z"/><path class="cls-5" d="M967,423h-3v-.09Q965.49,423,967,423Z"/><path class="cls-5" d="M964,623.94c.62,0,1.23,0,1.83,0-.51,0-1,0-1.53,0H964Z"/><path class="cls-5" d="M968.46,527H964v-.23c1.31,0,2.64.1,4,.21Z"/><path class="cls-5" d="M968.46,527H956a67.17,67.17,0,0,1,8-.23c1.31,0,2.64.1,4,.21Z"/><path d="M975.26,623.49a64.05,64.05,0,0,1-9.43.49C969,624,972.15,623.78,975.26,623.49Z"/><path class="cls-6" d="M1265.07,128.17,1059,568.82c-14.21,30.4-46.6,51.22-83.77,54.67,58.91-7.42,60.59-94-6.8-96.49H952a52,52,0,0,1,0-104h84a52,52,0,1,0,0-104H828a52,52,0,0,1,0-104H986a52,52,0,1,0,0-104H964v-.24c-1.65.16-3.31.24-5,.24H890A52,52,0,0,1,890,7h69c1.69,0,3.35.08,5,.24V7h206.33C1242.74,7,1292.17,70.22,1265.07,128.17ZM882,475h0a52,52,0,0,0-52-52h0a52,52,0,0,0-52,52h0a52,52,0,0,0,52,52h0A52,52,0,0,0,882,475ZM801,59h0A52,52,0,0,0,749,7H670a52,52,0,0,0-52,52h0a52,52,0,0,0,52,52h79A52,52,0,0,0,801,59Z"/><path class="cls-7" d="M1760,179.5a51.49,51.49,0,0,1-51.5,51.5h-160a51.5,51.5,0,0,0,0,103H1592a51.49,51.49,0,0,1,0,103H1408.5a51.5,51.5,0,0,0,0,103H1592a51.49,51.49,0,0,1,0,103h-.5c-.55,0-1.1,0-1.64,0-151.1-2.14-245.4-57.16-282.9-125.31a51.54,51.54,0,0,0-18.51-74.77c1.22-38.51,18.48-76.8,51.77-108.89-89.89-86.64-62.88-218.4,81-277.92a51.49,51.49,0,1,0,76.23-22.2A541.3,541.3,0,0,1,1592,25h0a51.49,51.49,0,0,0,0,103h116.5A51.5,51.5,0,0,1,1760,179.5Z"/><path d="M1316,488.5a51.31,51.31,0,0,1-9,29.16c-13.15-23.88-19.32-49.38-18.51-74.77A51.52,51.52,0,0,1,1316,488.5Z"/><path d="M1520,76.5a51.5,51.5,0,1,1-98.8-20.42,385.46,385.46,0,0,1,76.22-22.2h0A51.55,51.55,0,0,1,1520,76.5Z"/><path d="M1592,231h0Z"/><path d="M1592,334v0h0Z"/><path d="M1592,437h0Z"/><path d="M1592.26,25h0Z"/><path d="M1592.5,128h0Z"/><path d="M1592,540h0Z"/><path d="M1591.75,643h0Z"/><path class="cls-8" d="M1592.26,25h0Z"/><path class="cls-8" d="M1592.5,128h0Z"/><path class="cls-9" d="M1592,643h0a51.49,51.49,0,0,0,0-103H1408.5a51.5,51.5,0,1,1,0-103H1592a51.49,51.49,0,0,0,0-103v0h-43.5a51.5,51.5,0,1,1,0-103h160a51.5,51.5,0,0,0,0-103H1592a51.49,51.49,0,0,1,0-103h.26l1.87,0c284.35,4,367.56,195.32,249.66,309C1962,447.94,1878,639.92,1592,643ZM1288.45,442.89a51.34,51.34,0,0,0-24-5.89h-43a51.5,51.5,0,0,0,0,103h43a51.51,51.51,0,0,0,24-97.11ZM1504.92,40.08a51.83,51.83,0,0,0-7.49-6.2h0a51.49,51.49,0,1,0,7.5,6.2Z"/></g></g></svg>